<?xml version="1.0" standalone="no"?>
<!DOCTYPE svg PUBLIC "-//W3C//DTD SVG 1.1//EN" "http://www.w3.org/Graphics/SVG/1.1/DTD/svg11.dtd">
<svg width="100%" height="100%" viewBox="0 0 120 50" version="1.1" xmlns="http://www.w3.org/2000/svg" xmlns:xlink="http://www.w3.org/1999/xlink" xml:space="preserve" style="fill-rule:evenodd;clip-rule:evenodd;stroke-linejoin:bevel;stroke-miterlimit:1.41421;">
    <g>
        <g transform="matrix(1,0,0,1,6,0)">
            <path d="M119.122,49.753C118.801,49.753 118.635,49.753 118.468,49.753C113.93,49.753 109.392,49.761 104.855,49.737C104.539,49.735 104.146,49.584 103.92,49.365C87.108,33.076 70.308,16.774 53.508,0.471C53.39,0.356 53.282,0.231 53.109,0.046C53.34,0.027 53.497,0.002 53.654,0.002C58.149,0 62.644,-0.006 67.14,0.017C67.436,0.019 67.8,0.176 68.015,0.383C84.912,16.676 101.798,32.981 118.684,49.287C118.801,49.4 118.908,49.525 119.122,49.753Z" style="fill:black;fill-rule:nonzero;"/>
        </g>
        <path d="M1.096,49.88C9.691,41.498 18.144,33.254 26.668,24.941C18.088,16.656 9.531,8.391 0.878,0.035C1.191,0.019 1.37,0.002 1.55,0.002C6.003,0.001 10.455,-0.006 14.908,0.015C15.208,0.016 15.585,0.143 15.797,0.347C24.183,8.42 32.554,16.508 40.927,24.596C41.031,24.696 41.123,24.808 41.247,24.942C41.085,25.116 40.95,25.273 40.803,25.418C32.677,33.424 24.548,41.427 16.431,49.442C16.1,49.768 15.776,49.892 15.317,49.891C10.843,49.875 6.369,49.882 1.895,49.882C1.689,49.88 1.484,49.88 1.096,49.88Z" style="fill:black;fill-rule:nonzero;"/>
        <g transform="matrix(1,0,0,1,4,0)">
            <path d="M78.169,49.715C61.067,33.122 44.071,16.632 26.992,0.061C27.237,0.034 27.386,0.003 27.534,0.003C32.05,0 36.566,-0.005 41.082,0.016C41.359,0.017 41.701,0.166 41.903,0.36C53.888,11.91 65.862,23.47 77.827,35.04C78.015,35.222 78.184,35.533 78.185,35.785C78.206,40.301 78.2,44.817 78.199,49.334C78.199,49.411 78.187,49.489 78.169,49.715Z" style="fill:black;fill-rule:nonzero;"/>
        </g>
        <g transform="matrix(1,0,0,1,3,0)">
            <path d="M45,39L59,53" style="fill:none;stroke-width:10px;stroke:black;"/>
        </g>
    </g>
</svg>
