<?xml version="1.0" standalone="no"?>
<!DOCTYPE svg PUBLIC "-//W3C//DTD SVG 1.1//EN" "http://www.w3.org/Graphics/SVG/1.1/DTD/svg11.dtd">
<svg width="100%" height="100%" viewBox="0 0 158 71" version="1.1" xmlns="http://www.w3.org/2000/svg" xmlns:xlink="http://www.w3.org/1999/xlink" xml:space="preserve" style="fill-rule:evenodd;clip-rule:evenodd;stroke-linecap:round;stroke-miterlimit:1.41421;">
    <path d="M58,66.75L57.87,66.739L57.743,66.705L57.625,66.65L57.518,66.575L57.425,66.482L57.35,66.375L57.295,66.257L57.261,66.13L57.25,66L57.261,65.87L57.295,65.743L57.35,65.625L57.425,65.518L57.518,65.425L57.625,65.35L57.743,65.295L57.87,65.261L58,65.25L87.25,65.25L87.25,61.75L69.25,61.75L69.25,55.25L87.25,55.25L87.25,51.75L69.25,51.75L69.25,45.25L87.25,45.25L87.25,40.75L69.25,40.75L69.25,34.25L87.25,34.25L87.25,30.75L69.25,30.75L69.25,24.25L87.25,24.25L87.25,20.75L50.25,20.75L50.25,14.25L106.25,14.25L106.25,9.75L50.25,9.75L50.25,3.25L106.25,3.25L106.25,2L106.261,1.87L106.295,1.743L106.35,1.625L106.425,1.518L106.518,1.425L106.625,1.35L106.743,1.295L106.87,1.261L107,1.25L107.13,1.261L107.257,1.295L107.375,1.35L107.482,1.425L107.575,1.518L107.65,1.625L107.705,1.743L107.739,1.87L107.75,2L107.75,4.75L51.75,4.75L51.75,8.25L107.75,8.25L107.75,15.75L51.75,15.75L51.75,19.25L88.75,19.25L88.75,25.75L70.75,25.75L70.75,29.25L88.75,29.25L88.75,35.75L70.75,35.75L70.75,39.25L88.75,39.25L88.75,46.75L70.75,46.75L70.75,50.25L88.75,50.25L88.75,56.75L70.75,56.75L70.75,60.25L88.75,60.25L88.75,66.75L58,66.75Z" style="fill:black;"/>
    <path d="M53,66L54,66" style="fill:none;stroke-width:2px;stroke:black;"/>
</svg>
