<?xml version="1.0" standalone="no"?>
<!DOCTYPE svg PUBLIC "-//W3C//DTD SVG 1.1//EN" "http://www.w3.org/Graphics/SVG/1.1/DTD/svg11.dtd">
<svg width="100%" height="100%" viewBox="0 0 1024 1024" version="1.1" xmlns="http://www.w3.org/2000/svg" xmlns:xlink="http://www.w3.org/1999/xlink" xml:space="preserve" style="fill-rule:evenodd;clip-rule:evenodd;stroke-linejoin:round;stroke-miterlimit:1.41421;">
    <g transform="matrix(1.59082,3.83906e-19,3.83906e-19,1.58925,37.1396,-40.6586)">
        <path d="M312,241L401,306L527,197L560,110L312,241Z" style="fill:black;"/>
        <path d="M313,219L555,91L496,69L310,133L313,219Z" style="fill:black;"/>
        <path d="M313,270L312,646L338,619L337,598L391,328L313,270Z" style="fill:black;"/>
        <g transform="matrix(-1,0,0,1,597,0)">
            <path d="M312,241L401,306L527,197L560,110L312,241Z" style="fill:black;"/>
        </g>
        <g transform="matrix(-1,0,0,1,597,0)">
            <path d="M313,219L555,91L496,69L310,133L313,219Z" style="fill:black;"/>
        </g>
        <g transform="matrix(-1,0,0,1,597,0)">
            <path d="M313,270L312,646L338,619L337,598L391,328L313,270Z" style="fill:black;"/>
        </g>
    </g>
</svg>
